<?xml version="1.0" standalone="no"?>
<!DOCTYPE svg PUBLIC "-//W3C//DTD SVG 20010904//EN"
 "http://www.w3.org/TR/2001/REC-SVG-20010904/DTD/svg10.dtd">
<svg version="1.0" xmlns="http://www.w3.org/2000/svg"
 width="1408.000000pt" height="736.000000pt" viewBox="0 0 1408.000000 736.000000"
 preserveAspectRatio="xMidYMid meet">

<g transform="translate(0.000000,736.000000) scale(0.100000,-0.100000)"
fill="#000000" stroke="none">
<path d="M4785 4854 c-66 -41 -176 -108 -245 -150 -69 -41 -136 -83 -150 -94
l-25 -19 98 -46 c54 -25 96 -49 94 -53 -6 -9 -211 -429 -337 -687 -114 -235
-248 -518 -280 -592 -12 -29 -25 -53 -29 -53 -4 0 -61 129 -127 288 l-121 287
-138 3 c-108 2 -136 0 -132 -10 12 -30 179 -418 310 -718 l72 -165 115 -3 c63
-1 124 -1 136 2 13 4 29 25 44 58 13 29 56 121 95 203 40 83 87 182 105 220
18 39 118 243 222 455 104 212 212 433 240 493 28 59 55 107 59 107 4 0 49
-23 100 -50 51 -28 94 -48 96 -46 2 2 -8 120 -22 262 -38 373 -39 377 -50 380
-5 1 -64 -31 -130 -72z"/>
<path d="M3892 4119 c2 -458 6 -703 13 -705 10 -3 28 33 229 451 l111 230 0
360 0 360 -178 3 -177 2 2 -701z"/>
<path d="M3392 4083 l3 -238 156 -3 c124 -2 160 -6 169 -17 32 -39 35 -17 32
240 l-3 255 -180 0 -179 0 2 -237z"/>
<path d="M9440 3455 l0 -616 113 3 112 3 3 121 3 121 68 66 c38 37 73 67 78
67 9 0 20 -14 182 -233 56 -76 108 -140 115 -143 7 -2 65 -3 129 -2 l118 3
-70 97 c-38 53 -124 169 -190 256 -67 88 -121 163 -121 167 0 12 56 73 201
221 77 77 136 144 132 147 -3 4 -58 7 -122 6 l-116 0 -200 -195 -200 -194 -3
360 -2 360 -115 0 -115 0 0 -615z"/>
<path d="M2064 3973 c3 -21 6 -285 6 -586 l0 -548 128 3 127 3 3 583 2 582
-136 0 -137 0 7 -37z"/>
<path d="M6390 3845 l0 -105 -70 0 -70 0 0 -90 0 -90 69 0 69 0 4 -272 c3
-259 4 -275 25 -314 30 -56 93 -109 151 -125 75 -22 217 -17 276 9 47 21 48
23 42 56 -4 19 -13 57 -22 85 l-15 51 -36 -15 c-77 -32 -162 -11 -182 46 -7
20 -11 118 -11 255 l0 224 110 0 111 0 -3 88 -3 87 -107 3 -107 3 -3 102 -3
102 -112 3 -113 3 0 -106z"/>
<path d="M2905 3741 c-52 -14 -99 -37 -131 -64 -40 -34 -44 -34 -44 2 0 60 -2
61 -126 61 l-114 0 0 -450 0 -451 123 3 122 3 5 275 c5 293 7 302 59 357 41
43 78 55 157 51 67 -3 76 -6 107 -36 60 -58 67 -100 67 -393 l0 -260 123 3
122 3 3 260 c2 143 -2 295 -7 337 -18 132 -79 226 -179 275 -49 24 -70 28
-157 30 -55 1 -113 -2 -130 -6z"/>
<path d="M4738 3727 c-168 -59 -274 -188 -300 -365 -11 -71 -10 -95 4 -163 28
-133 81 -216 181 -282 88 -58 165 -80 292 -81 151 -1 256 32 340 105 l35 31
-20 27 c-11 14 -39 48 -63 75 l-44 50 -31 -23 c-62 -44 -119 -62 -195 -62 -82
0 -129 16 -182 63 -30 26 -75 93 -75 112 0 3 150 7 333 8 l332 3 -1 100 c0 93
-3 105 -36 177 -48 101 -103 159 -195 205 -71 35 -80 37 -191 40 -102 3 -125
1 -184 -20z m263 -190 c49 -26 96 -85 105 -134 l7 -33 -213 0 -212 0 6 31 c25
127 187 199 307 136z"/>
<path d="M5685 3737 c-156 -41 -245 -144 -245 -284 0 -101 53 -178 146 -213
29 -10 112 -30 185 -44 80 -16 144 -33 159 -44 59 -44 22 -107 -71 -121 -85
-14 -206 9 -312 59 -26 12 -49 21 -51 19 -3 -5 -29 -62 -56 -127 -22 -51 -22
-53 -4 -67 33 -24 166 -63 258 -75 183 -25 359 15 443 99 90 89 97 243 16 332
-57 63 -100 80 -305 119 -129 25 -158 40 -158 85 0 27 7 38 33 57 48 34 181
32 295 -6 46 -15 86 -25 88 -23 3 2 20 41 39 86 l34 81 -22 15 c-13 8 -50 24
-83 36 -74 27 -309 36 -389 16z"/>
<path d="M7382 3735 c-42 -13 -105 -54 -129 -82 -19 -24 -33 -5 -33 43 l0 44
-110 0 -110 0 0 -450 0 -450 115 0 115 0 1 198 c0 266 9 340 45 399 37 59 103
95 185 101 l59 4 0 104 0 104 -47 -1 c-27 0 -67 -6 -91 -14z"/>
<path d="M7784 3730 c-76 -20 -174 -64 -174 -79 0 -9 69 -163 76 -170 2 -2 12
2 21 10 57 47 195 76 285 59 86 -16 137 -66 145 -143 l5 -45 -173 -4 c-188 -5
-242 -17 -314 -72 -70 -54 -103 -170 -74 -267 36 -119 183 -198 345 -186 80 6
133 25 186 67 20 17 39 30 42 30 3 0 6 -20 6 -45 l0 -46 103 3 102 3 0 320 c0
281 -2 326 -18 371 -34 98 -123 174 -236 200 -82 20 -241 17 -327 -6z m356
-563 c0 -72 -25 -114 -88 -150 -90 -51 -215 -34 -249 34 -31 61 3 139 70 158
18 5 85 10 150 10 l117 1 0 -53z"/>
<path d="M8800 3731 c-75 -24 -107 -42 -161 -90 -98 -86 -149 -205 -149 -344
1 -98 12 -151 48 -225 100 -206 410 -303 628 -197 57 28 132 90 165 137 26 36
24 39 -77 102 l-69 43 -50 -52 c-41 -42 -61 -54 -104 -65 -131 -31 -253 34
-296 159 -68 199 90 394 283 351 44 -10 66 -22 109 -63 l54 -51 32 19 c18 10
56 33 85 52 47 30 51 35 41 54 -37 70 -138 147 -228 173 -75 22 -239 21 -311
-3z"/>
<path d="M10658 3740 c-107 -27 -225 -116 -281 -210 -51 -88 -72 -240 -46
-349 27 -120 114 -235 220 -289 151 -78 340 -79 494 -3 44 22 91 51 104 65
l24 25 -51 59 c-78 89 -74 88 -124 52 -117 -82 -278 -77 -375 13 -40 36 -81
102 -71 112 2 2 150 6 329 8 179 2 331 7 338 11 9 6 10 30 5 89 -16 191 -99
318 -252 390 -58 27 -77 31 -171 33 -58 2 -123 -1 -143 -6z m195 -181 c49 -13
100 -59 126 -113 39 -80 50 -76 -204 -76 -148 0 -225 4 -225 10 0 25 33 88 63
119 61 64 148 86 240 60z"/>
<path d="M11716 3730 c-54 -21 -126 -68 -126 -81 0 -5 -7 -9 -15 -9 -11 0 -15
12 -15 50 l0 51 -107 -3 -108 -3 0 -445 0 -445 115 0 115 0 5 270 c5 293 6
299 66 359 43 42 82 59 154 65 l65 6 0 100 0 100 -50 2 c-31 2 -69 -5 -99 -17z"/>
</g>
</svg>
