<svg id="svg" version="1.1" xmlns="http://www.w3.org/2000/svg" xmlns:xlink="http://www.w3.org/1999/xlink" width="400" height="400" viewBox="0, 0, 400,400"><g id="svgg"><path id="path0" d="M331.244 56.715 C 330.656 57.077,326.396 59.528,321.777 62.160 C 317.158 64.793,313.071 67.123,312.695 67.338 C 312.319 67.554,309.375 69.222,306.152 71.047 C 302.930 72.871,297.881 75.745,294.932 77.434 C 291.984 79.124,288.380 81.169,286.924 81.980 C 285.469 82.791,284.058 83.605,283.789 83.790 C 283.521 83.974,282.773 84.415,282.129 84.770 C 279.566 86.182,279.119 86.431,276.953 87.653 C 275.718 88.351,273.125 89.818,271.191 90.915 C 262.327 95.943,258.618 98.042,257.715 98.542 C 255.910 99.540,242.919 106.891,237.891 109.759 C 236.440 110.586,233.563 112.219,231.496 113.387 C 229.429 114.556,227.803 115.574,227.883 115.649 C 227.962 115.725,228.862 116.135,229.883 116.560 C 230.903 116.986,232.969 117.882,234.473 118.553 C 235.977 119.223,238.130 120.149,239.258 120.610 C 240.386 121.072,242.979 122.172,245.020 123.055 C 247.061 123.939,249.302 124.901,250.000 125.194 C 250.698 125.487,252.379 126.218,253.735 126.818 C 256.495 128.040,259.576 129.342,261.011 129.893 C 262.230 130.360,262.221 130.347,261.771 130.995 C 261.561 131.296,261.072 132.172,260.685 132.940 C 260.012 134.275,259.224 135.773,257.619 138.770 C 257.216 139.521,256.402 141.060,255.811 142.188 C 255.220 143.315,254.431 144.810,254.058 145.508 C 253.686 146.206,252.740 148.008,251.956 149.512 C 251.173 151.016,250.071 153.125,249.509 154.199 C 248.947 155.273,247.982 157.119,247.364 158.301 C 246.747 159.482,246.000 160.889,245.705 161.426 C 245.409 161.963,244.727 163.237,244.189 164.258 C 241.555 169.253,238.437 175.139,238.239 175.488 C 237.858 176.160,236.946 177.899,235.012 181.641 C 233.984 183.628,233.081 185.342,233.005 185.449 C 232.928 185.557,232.359 186.611,231.740 187.793 C 229.504 192.061,228.448 194.068,227.733 195.410 C 227.332 196.162,226.409 197.920,225.681 199.316 C 224.953 200.713,224.292 201.943,224.212 202.051 C 224.133 202.158,223.476 203.389,222.754 204.785 C 222.031 206.182,221.285 207.588,221.095 207.910 C 220.905 208.232,219.410 211.045,217.773 214.160 C 213.105 223.043,212.863 223.500,212.500 224.121 C 212.107 224.794,209.115 230.456,207.030 234.473 C 206.249 235.977,205.064 238.218,204.395 239.453 C 203.262 241.548,202.676 242.650,200.293 247.168 C 199.783 248.135,199.033 249.541,198.626 250.293 C 197.537 252.307,193.319 260.268,190.090 266.406 C 188.536 269.360,186.628 272.964,185.849 274.414 C 184.277 277.343,182.884 279.981,181.056 283.496 C 180.385 284.785,179.505 286.455,179.100 287.207 C 178.695 287.959,177.991 289.277,177.537 290.137 C 177.082 290.996,175.941 293.149,175.002 294.922 C 174.062 296.694,172.766 299.155,172.120 300.391 C 171.474 301.626,170.452 303.541,169.848 304.646 C 169.244 305.751,168.750 306.690,168.750 306.733 C 168.750 306.776,167.930 308.333,166.928 310.193 C 165.925 312.052,164.483 314.761,163.722 316.211 C 162.962 317.661,162.104 319.287,161.817 319.824 C 161.115 321.136,159.304 324.579,157.824 327.414 C 157.159 328.688,156.150 330.578,155.583 331.613 C 154.391 333.789,153.367 335.716,150.590 341.016 C 149.492 343.110,148.438 345.088,148.248 345.410 C 147.760 346.236,145.312 350.963,145.312 351.078 C 145.312 351.131,153.588 351.151,163.704 351.124 L 182.095 351.074 186.213 344.408 C 194.315 331.296,196.350 328.014,196.975 327.051 C 197.324 326.514,198.883 324.009,200.440 321.484 C 201.996 318.960,203.716 316.191,204.260 315.332 C 205.333 313.640,206.289 312.092,208.788 308.008 C 209.675 306.558,211.691 303.306,213.267 300.781 C 214.843 298.257,217.078 294.653,218.234 292.773 C 219.390 290.894,221.600 287.334,223.147 284.863 C 224.693 282.393,226.256 279.888,226.620 279.297 C 226.985 278.706,227.944 277.168,228.752 275.879 C 229.559 274.590,230.950 272.349,231.841 270.898 C 232.733 269.448,234.313 266.899,235.354 265.234 C 236.394 263.569,237.632 261.571,238.105 260.793 C 238.578 260.015,239.527 258.477,240.215 257.375 C 240.902 256.273,242.744 253.306,244.307 250.781 C 246.643 247.010,253.947 235.262,256.693 230.859 C 258.472 228.007,262.884 220.897,263.357 220.117 C 264.041 218.992,265.439 216.743,267.972 212.695 C 269.081 210.923,270.904 207.979,272.023 206.152 C 273.142 204.326,274.344 202.393,274.694 201.855 C 275.045 201.318,277.075 198.066,279.206 194.629 C 281.336 191.191,283.443 187.808,283.888 187.109 C 284.753 185.750,285.440 184.643,287.598 181.130 C 288.350 179.906,290.027 177.212,291.325 175.145 C 294.139 170.663,296.557 166.781,297.363 165.448 C 298.259 163.968,303.438 155.722,303.589 155.536 C 303.610 155.510,307.584 158.265,308.709 159.085 C 308.933 159.248,309.910 159.930,310.880 160.599 C 314.407 163.033,323.197 169.220,324.707 170.333 C 325.683 171.051,328.724 173.183,329.665 173.809 C 330.053 174.067,330.415 174.338,330.469 174.411 C 330.522 174.483,331.226 174.995,332.031 175.547 C 332.837 176.099,333.746 176.742,334.052 176.977 L 334.608 177.404 334.486 168.927 C 334.418 164.264,334.324 159.790,334.277 158.984 C 334.230 158.179,334.141 152.290,334.081 145.898 C 334.020 139.507,333.933 133.618,333.888 132.813 C 333.842 132.007,333.756 125.503,333.695 118.359 C 333.634 111.216,333.545 104.624,333.496 103.711 C 333.448 102.798,333.361 97.173,333.303 91.211 C 333.246 85.249,333.157 79.097,333.107 77.539 C 333.056 75.981,332.964 70.708,332.903 65.820 C 332.793 57.014,332.749 56.055,332.461 56.055 C 332.379 56.055,331.831 56.352,331.244 56.715 M141.337 79.236 C 141.268 79.305,141.212 135.971,141.214 205.160 L 141.217 330.957 143.236 326.563 C 144.347 324.146,146.465 319.575,147.942 316.406 C 149.419 313.237,150.960 309.897,151.366 308.984 C 151.772 308.071,152.500 306.489,152.983 305.469 C 153.818 303.708,154.923 301.304,158.599 293.262 C 159.482 291.328,160.634 288.835,161.157 287.722 C 161.681 286.609,162.109 285.671,162.109 285.638 C 162.109 285.605,162.733 284.275,163.495 282.682 C 164.257 281.089,166.329 276.665,168.101 272.852 C 169.872 269.038,171.589 265.347,171.915 264.648 C 172.242 263.950,173.341 261.577,174.357 259.375 C 175.374 257.173,176.804 254.097,177.535 252.539 C 178.267 250.981,179.897 247.466,181.159 244.727 C 182.421 241.987,184.021 238.560,184.715 237.109 C 185.409 235.659,186.573 233.154,187.301 231.543 C 188.029 229.932,190.097 225.449,191.896 221.582 C 193.696 217.715,195.582 213.628,196.090 212.500 C 196.597 211.372,197.258 209.966,197.559 209.375 C 197.860 208.784,198.520 207.378,199.025 206.250 C 199.836 204.443,205.016 193.344,208.085 186.841 L 209.180 184.521 209.180 131.930 C 209.180 83.856,209.153 79.328,208.867 79.219 C 208.447 79.057,141.499 79.074,141.337 79.236 M65.449 244.971 C 65.479 291.619,65.541 329.939,65.587 330.127 C 65.666 330.450,67.055 330.469,91.334 330.469 L 116.997 330.469 116.981 245.313 L 116.964 160.156 91.180 160.156 L 65.396 160.156 65.449 244.971 " stroke="none" fill="#fbfbfb" fill-rule="evenodd"></path><path id="path1" d="M0.000 200.000 L 0.000 400.000 200.000 400.000 L 400.000 400.000 400.000 200.000 L 400.000 0.000 200.000 0.000 L 0.000 0.000 0.000 200.000 M332.840 57.131 C 332.909 57.667,332.977 61.714,332.990 66.124 C 333.004 70.534,333.048 74.313,333.088 74.522 C 333.128 74.731,333.222 80.000,333.296 86.230 C 333.370 92.461,333.467 97.778,333.512 98.047 C 333.557 98.315,333.598 101.458,333.604 105.029 C 333.611 109.938,333.671 111.524,333.848 111.526 C 333.991 111.528,333.968 111.603,333.789 111.719 C 333.529 111.887,333.529 111.909,333.789 111.914 C 333.979 111.918,334.007 111.970,333.867 112.064 C 333.748 112.143,333.672 112.640,333.697 113.184 C 333.722 113.721,333.798 118.906,333.865 124.707 C 333.933 130.508,334.031 137.100,334.082 139.355 C 334.134 141.611,334.233 147.852,334.302 153.223 C 334.372 158.594,334.483 166.183,334.548 170.087 C 334.614 173.992,334.600 177.228,334.517 177.279 C 334.434 177.330,333.731 176.899,332.955 176.321 C 332.178 175.743,331.235 175.062,330.859 174.809 C 330.483 174.556,329.780 174.060,329.297 173.706 C 327.442 172.348,314.045 162.902,306.179 157.405 C 303.337 155.419,303.661 155.417,302.506 157.422 C 302.165 158.013,301.648 158.848,301.356 159.277 C 300.694 160.252,297.986 164.572,296.092 167.676 C 295.305 168.965,294.159 170.811,293.545 171.777 C 292.462 173.483,290.404 176.790,285.647 184.473 C 284.383 186.514,283.039 188.667,282.660 189.258 C 282.282 189.849,281.775 190.640,281.535 191.016 C 281.294 191.392,279.495 194.292,277.536 197.461 C 275.576 200.630,273.775 203.530,273.533 203.906 C 273.183 204.448,267.707 213.243,263.291 220.354 C 261.721 222.882,259.535 226.421,258.070 228.809 C 255.760 232.570,251.072 240.120,250.003 241.797 C 249.490 242.603,247.247 246.206,245.018 249.805 C 242.789 253.403,240.767 256.655,240.523 257.031 C 240.280 257.407,239.357 258.901,238.471 260.352 C 237.585 261.802,236.360 263.779,235.748 264.746 C 235.136 265.713,233.996 267.559,233.213 268.848 C 232.431 270.137,231.639 271.411,231.454 271.680 C 230.968 272.386,226.845 279.023,224.417 283.008 C 223.272 284.888,221.814 287.241,221.177 288.237 C 219.849 290.315,219.814 290.371,218.317 292.810 C 217.702 293.810,215.886 296.738,214.280 299.316 C 212.674 301.895,210.576 305.278,209.617 306.836 C 206.010 312.698,205.209 313.991,204.595 314.941 C 203.662 316.386,202.282 318.596,200.936 320.801 C 199.598 322.992,195.118 330.231,193.803 332.324 C 190.686 337.288,188.268 341.165,187.325 342.714 C 186.723 343.702,185.537 345.636,184.689 347.011 C 183.841 348.386,182.919 349.885,182.640 350.342 L 182.132 351.172 163.618 351.172 L 145.103 351.172 145.334 350.732 C 145.462 350.491,146.155 349.194,146.876 347.852 C 148.962 343.967,149.656 342.656,151.168 339.746 C 151.949 338.242,152.829 336.572,153.123 336.035 C 153.418 335.498,154.166 334.092,154.786 332.910 C 155.407 331.729,156.112 330.410,156.355 329.980 C 156.597 329.551,158.136 326.650,159.775 323.535 C 161.414 320.420,162.991 317.432,163.280 316.895 C 163.569 316.357,164.357 314.863,165.032 313.574 C 165.706 312.285,166.500 310.791,166.796 310.254 C 167.092 309.717,167.729 308.530,168.211 307.617 C 168.694 306.704,169.879 304.463,170.846 302.637 C 172.704 299.125,173.844 296.960,175.680 293.457 C 176.300 292.275,177.092 290.781,177.441 290.137 C 177.790 289.492,178.581 287.998,179.198 286.816 C 179.815 285.635,180.694 283.965,181.150 283.105 C 181.607 282.246,182.532 280.488,183.207 279.199 C 183.882 277.910,185.244 275.361,186.233 273.535 C 187.221 271.709,188.065 270.127,188.107 270.020 C 188.238 269.684,191.607 263.276,192.676 261.328 C 193.236 260.308,194.289 258.330,195.016 256.934 C 195.743 255.537,196.582 253.955,196.879 253.418 C 197.464 252.362,205.022 238.106,207.027 234.277 C 208.831 230.831,211.672 225.465,212.403 224.121 C 213.166 222.719,214.066 221.023,216.600 216.211 C 217.647 214.224,219.469 210.796,220.649 208.594 C 221.829 206.392,224.093 202.129,225.680 199.121 C 227.267 196.113,228.920 192.993,229.353 192.188 C 229.787 191.382,230.360 190.283,230.628 189.746 C 230.895 189.209,231.703 187.671,232.423 186.328 C 235.437 180.707,237.116 177.317,236.989 177.112 C 236.908 176.981,236.942 176.947,237.073 177.028 C 237.343 177.195,238.550 174.886,238.355 174.571 C 238.279 174.447,238.309 174.408,238.425 174.480 C 238.543 174.553,238.996 173.887,239.500 172.899 C 239.980 171.960,240.681 170.620,241.060 169.922 C 241.438 169.224,242.210 167.773,242.774 166.699 C 244.019 164.331,245.016 162.473,245.604 161.426 C 246.179 160.401,247.270 158.345,249.024 154.980 C 249.807 153.477,250.787 151.601,251.201 150.812 C 251.615 150.024,251.897 149.285,251.826 149.171 C 251.755 149.057,251.778 149.013,251.876 149.073 C 251.974 149.134,252.533 148.247,253.118 147.102 C 253.703 145.956,254.591 144.272,255.093 143.359 C 255.594 142.446,256.488 140.776,257.078 139.648 C 258.964 136.049,259.978 134.128,260.958 132.300 C 262.110 130.153,262.107 130.399,260.986 129.977 C 260.476 129.785,259.619 129.430,259.082 129.188 C 258.130 128.760,255.552 127.658,250.195 125.390 C 248.745 124.776,246.548 123.830,245.313 123.286 C 244.077 122.743,241.353 121.579,239.258 120.700 C 234.841 118.846,234.879 118.862,232.351 117.690 C 231.291 117.199,230.320 116.797,230.193 116.797 C 230.065 116.797,229.877 116.721,229.775 116.627 C 229.673 116.534,229.172 116.302,228.662 116.112 C 228.152 115.923,227.734 115.701,227.734 115.620 C 227.734 115.485,232.040 112.931,236.133 110.638 C 237.046 110.126,239.727 108.608,242.090 107.264 C 244.453 105.920,246.870 104.557,247.461 104.236 C 248.052 103.914,250.425 102.580,252.734 101.270 C 255.044 99.961,258.472 98.026,260.352 96.971 C 262.231 95.915,264.868 94.419,266.211 93.646 C 267.554 92.873,269.092 91.996,269.629 91.696 C 270.769 91.061,275.414 88.445,279.590 86.086 C 281.201 85.175,283.398 83.921,284.473 83.298 C 285.547 82.675,286.865 81.930,287.402 81.641 C 288.828 80.874,296.051 76.718,297.018 76.108 C 297.472 75.821,297.898 75.586,297.965 75.586 C 298.031 75.586,298.582 75.288,299.189 74.924 C 299.796 74.560,301.611 73.518,303.223 72.607 C 304.834 71.696,307.778 70.027,309.766 68.896 C 311.753 67.766,313.687 66.668,314.063 66.457 C 319.265 63.536,330.988 56.817,331.738 56.326 C 332.425 55.876,332.705 56.081,332.840 57.131 M209.327 131.885 L 209.277 184.668 208.376 186.523 C 207.880 187.544,207.144 189.082,206.741 189.941 C 206.338 190.801,205.569 192.427,205.031 193.555 C 204.494 194.683,203.503 196.792,202.830 198.242 C 202.157 199.692,201.243 201.653,200.799 202.600 C 199.819 204.690,195.787 213.371,192.346 220.801 C 188.641 228.799,188.047 230.086,186.660 233.105 C 185.969 234.609,183.845 239.180,181.940 243.262 C 177.298 253.211,177.031 253.786,174.419 259.473 C 173.433 261.621,172.183 264.302,171.643 265.430 C 171.103 266.558,169.957 269.019,169.097 270.898 C 167.448 274.503,165.315 279.068,163.530 282.813 C 162.941 284.048,161.073 288.091,159.378 291.797 C 157.684 295.503,155.286 300.732,154.050 303.418 C 152.814 306.104,151.580 308.784,151.308 309.375 C 151.036 309.966,150.178 311.812,149.401 313.477 C 148.624 315.142,147.793 316.943,147.553 317.480 C 147.314 318.018,146.721 319.292,146.236 320.313 C 145.751 321.333,144.701 323.574,143.902 325.293 C 143.104 327.012,142.179 328.989,141.847 329.688 L 141.243 330.957 141.227 205.029 L 141.211 79.102 175.294 79.102 L 209.377 79.102 209.327 131.885 M333.536 81.299 C 333.490 81.541,333.452 81.343,333.452 80.859 C 333.452 80.376,333.490 80.178,333.536 80.420 C 333.583 80.662,333.583 81.057,333.536 81.299 M116.992 245.215 L 116.992 330.469 91.211 330.469 L 65.430 330.469 65.430 245.215 L 65.430 159.961 91.211 159.961 L 116.992 159.961 116.992 245.215 M378.477 368.984 C 378.605 369.113,378.711 369.367,378.711 369.548 C 378.711 369.729,379.076 370.612,379.523 371.511 C 380.935 374.350,383.124 376.173,386.963 377.707 C 387.830 378.053,387.607 378.421,386.287 378.821 C 382.953 379.830,379.740 383.155,378.699 386.670 C 378.417 387.623,378.017 387.741,377.707 386.963 C 375.963 382.597,373.950 380.447,370.175 378.917 C 368.489 378.235,368.502 377.974,370.251 377.328 C 373.463 376.143,376.105 373.481,377.335 370.193 C 377.933 368.596,378.008 368.516,378.477 368.984 " stroke="none" fill="#140f09" fill-rule="evenodd"></path><path id="path2" d="M332.886 64.160 C 332.886 65.342,332.918 65.800,332.957 65.178 C 332.996 64.557,332.996 63.590,332.956 63.030 C 332.917 62.470,332.885 62.979,332.886 64.160 M333.057 76.270 C 333.059 76.699,333.099 76.852,333.146 76.609 C 333.193 76.366,333.191 76.015,333.142 75.828 C 333.093 75.641,333.055 75.840,333.057 76.270 M333.259 91.309 C 333.260 91.846,333.298 92.042,333.343 91.745 C 333.388 91.448,333.387 91.009,333.341 90.769 C 333.294 90.529,333.258 90.771,333.259 91.309 M333.464 101.953 C 333.464 102.759,333.499 103.088,333.541 102.686 C 333.583 102.283,333.583 101.624,333.541 101.221 C 333.499 100.818,333.464 101.147,333.464 101.953 M333.662 118.164 C 333.662 119.077,333.696 119.451,333.737 118.994 C 333.778 118.538,333.778 117.791,333.737 117.334 C 333.696 116.877,333.662 117.251,333.662 118.164 M333.857 130.664 C 333.857 131.577,333.891 131.951,333.932 131.494 C 333.973 131.038,333.973 130.291,333.932 129.834 C 333.891 129.377,333.857 129.751,333.857 130.664 M334.045 145.801 C 334.046 146.445,334.082 146.685,334.126 146.334 C 334.169 145.983,334.168 145.456,334.124 145.163 C 334.079 144.869,334.044 145.156,334.045 145.801 M334.245 157.227 C 334.245 158.032,334.280 158.362,334.322 157.959 C 334.364 157.556,334.364 156.897,334.322 156.494 C 334.280 156.091,334.245 156.421,334.245 157.227 M69.580 160.101 C 69.875 160.146,70.359 160.146,70.654 160.101 C 70.950 160.056,70.708 160.019,70.117 160.019 C 69.526 160.019,69.285 160.056,69.580 160.101 M72.024 160.099 C 72.267 160.146,72.618 160.144,72.805 160.095 C 72.992 160.046,72.793 160.008,72.363 160.010 C 71.934 160.012,71.781 160.052,72.024 160.099 M79.834 160.106 C 80.720 160.142,82.170 160.142,83.057 160.106 C 83.943 160.070,83.218 160.040,81.445 160.040 C 79.673 160.040,78.948 160.070,79.834 160.106 M95.654 160.102 C 96.003 160.146,96.575 160.146,96.924 160.102 C 97.273 160.059,96.987 160.023,96.289 160.023 C 95.591 160.023,95.305 160.059,95.654 160.102 M100.146 160.106 C 101.033 160.142,102.483 160.142,103.369 160.106 C 104.255 160.070,103.530 160.040,101.758 160.040 C 99.985 160.040,99.260 160.070,100.146 160.106 M112.354 160.106 C 113.186 160.143,114.548 160.143,115.381 160.106 C 116.213 160.070,115.532 160.040,113.867 160.040 C 112.202 160.040,111.521 160.070,112.354 160.106 M334.420 169.141 C 334.420 169.517,334.461 169.670,334.510 169.482 C 334.559 169.294,334.559 168.987,334.510 168.799 C 334.461 168.611,334.420 168.765,334.420 169.141 M116.846 194.629 C 116.848 195.059,116.888 195.211,116.935 194.968 C 116.982 194.725,116.980 194.374,116.931 194.187 C 116.882 194.000,116.844 194.199,116.846 194.629 M65.488 294.922 C 65.488 295.513,65.525 295.754,65.570 295.459 C 65.614 295.164,65.614 294.680,65.570 294.385 C 65.525 294.089,65.488 294.331,65.488 294.922 M65.500 301.953 C 65.500 302.974,65.533 303.391,65.573 302.881 C 65.613 302.371,65.613 301.536,65.573 301.025 C 65.533 300.515,65.500 300.933,65.500 301.953 M65.486 314.355 C 65.487 314.893,65.525 315.089,65.570 314.792 C 65.615 314.495,65.614 314.056,65.567 313.816 C 65.521 313.575,65.484 313.818,65.486 314.355 M65.504 317.578 C 65.504 318.813,65.535 319.319,65.574 318.701 C 65.613 318.083,65.613 317.073,65.574 316.455 C 65.535 315.837,65.504 316.343,65.504 317.578 M65.488 320.898 C 65.488 321.489,65.525 321.731,65.570 321.436 C 65.614 321.140,65.614 320.657,65.570 320.361 C 65.525 320.066,65.488 320.308,65.488 320.898 M377.930 371.094 L 377.930 373.242 379.102 373.242 C 380.467 373.242,380.430 373.308,379.709 372.171 C 379.399 371.682,378.982 370.756,378.782 370.115 C 378.206 368.268,377.930 368.585,377.930 371.094 M374.561 374.646 C 373.509 375.735,373.438 375.870,373.438 376.752 L 373.438 377.695 375.586 377.706 L 377.734 377.716 377.734 375.577 L 377.734 373.438 376.709 373.460 C 375.723 373.481,375.641 373.527,374.561 374.646 M382.422 376.577 L 382.422 377.734 384.521 377.728 L 386.621 377.722 385.645 377.305 C 385.107 377.075,384.163 376.558,383.545 376.154 L 382.422 375.420 382.422 376.577 M368.945 378.223 C 368.945 378.384,369.083 378.516,369.251 378.516 C 369.662 378.516,371.406 379.263,372.329 379.834 C 373.002 380.251,373.072 380.261,373.039 379.943 C 373.018 379.749,373.018 379.546,373.039 379.492 C 373.059 379.438,373.104 379.065,373.139 378.662 L 373.202 377.930 371.074 377.930 C 369.312 377.930,368.945 377.980,368.945 378.223 M377.930 378.719 C 377.930 379.344,377.997 379.497,378.249 379.452 C 378.439 379.418,378.592 379.544,378.626 379.762 C 378.669 380.035,378.627 380.073,378.463 379.908 C 378.342 379.787,378.150 379.688,378.037 379.689 C 377.924 379.689,378.077 379.852,378.377 380.049 C 378.920 380.408,378.684 381.107,378.134 380.767 C 378.005 380.687,377.930 380.933,377.930 381.434 C 377.930 382.255,378.343 382.516,378.846 382.013 C 379.001 381.859,379.170 381.859,379.458 382.013 C 380.940 382.806,382.031 381.771,382.031 379.572 L 382.031 377.930 379.980 377.930 L 377.930 377.930 377.930 378.719 M386.719 378.223 C 386.719 378.384,386.851 378.516,387.012 378.516 C 387.173 378.516,387.305 378.384,387.305 378.223 C 387.305 378.062,387.173 377.930,387.012 377.930 C 386.851 377.930,386.719 378.062,386.719 378.223 M380.351 378.985 C 380.294 379.135,380.099 379.311,379.918 379.375 C 379.738 379.440,379.458 379.543,379.297 379.605 C 379.036 379.705,379.036 379.694,379.297 379.510 C 379.458 379.396,379.502 379.300,379.395 379.297 C 379.199 379.291,380.052 378.766,380.316 378.730 C 380.393 378.720,380.409 378.834,380.351 378.985 M379.437 380.837 C 379.458 381.112,379.367 381.181,379.083 381.106 C 378.721 381.012,378.719 380.993,379.048 380.744 C 379.239 380.599,379.398 380.478,379.402 380.475 C 379.406 380.472,379.422 380.635,379.437 380.837 M376.074 382.433 C 375.485 382.518,375.377 382.584,375.635 382.700 C 375.823 382.785,375.977 382.941,375.977 383.047 C 375.977 383.154,376.159 383.496,376.381 383.808 C 376.603 384.121,376.996 384.881,377.253 385.499 L 377.720 386.621 377.622 385.547 C 377.446 383.620,377.438 382.617,377.599 382.617 C 377.686 382.617,377.707 382.535,377.644 382.434 C 377.527 382.244,377.379 382.244,376.074 382.433 M377.930 387.012 C 377.930 387.173,378.062 387.305,378.223 387.305 C 378.384 387.305,378.516 387.173,378.516 387.012 C 378.516 386.851,378.384 386.719,378.223 386.719 C 378.062 386.719,377.930 386.851,377.930 387.012 " stroke="none" fill="#948c86" fill-rule="evenodd"></path><path id="path3" d="M332.873 59.473 C 332.874 60.117,332.911 60.357,332.954 60.006 C 332.998 59.655,332.997 59.128,332.952 58.834 C 332.907 58.541,332.872 58.828,332.873 59.473 M333.452 80.859 C 333.452 81.343,333.490 81.541,333.536 81.299 C 333.583 81.057,333.583 80.662,333.536 80.420 C 333.490 80.178,333.452 80.376,333.452 80.859 M209.273 101.074 C 209.273 111.279,209.297 115.483,209.326 110.415 C 209.355 105.348,209.355 96.998,209.326 91.861 C 209.297 86.723,209.273 90.869,209.273 101.074 M333.278 87.793 C 333.278 89.082,333.310 89.584,333.348 88.908 C 333.386 88.233,333.386 87.178,333.347 86.565 C 333.309 85.951,333.277 86.504,333.278 87.793 M333.401 98.877 C 333.400 99.280,333.432 99.609,333.473 99.609 C 333.643 99.609,333.718 98.639,333.567 98.401 C 333.463 98.238,333.403 98.410,333.401 98.877 M333.654 114.746 C 333.655 115.391,333.692 115.631,333.735 115.280 C 333.779 114.929,333.778 114.401,333.733 114.108 C 333.689 113.814,333.653 114.102,333.654 114.746 M209.268 132.813 C 209.268 136.948,209.294 138.640,209.326 136.572 C 209.358 134.504,209.358 131.121,209.326 129.053 C 209.294 126.985,209.268 128.677,209.268 132.813 M333.860 127.246 C 333.861 128.320,333.894 128.735,333.933 128.167 C 333.973 127.600,333.972 126.721,333.932 126.214 C 333.892 125.708,333.860 126.172,333.860 127.246 M334.061 141.797 C 334.061 143.247,334.092 143.840,334.129 143.115 C 334.167 142.390,334.167 141.204,334.129 140.479 C 334.092 139.753,334.061 140.347,334.061 141.797 M209.242 144.727 C 209.242 145.425,209.278 145.710,209.321 145.361 C 209.364 145.012,209.364 144.441,209.321 144.092 C 209.278 143.743,209.242 144.028,209.242 144.727 M209.265 155.469 C 209.265 158.208,209.292 159.329,209.326 157.959 C 209.359 156.589,209.359 154.348,209.326 152.979 C 209.292 151.609,209.265 152.729,209.265 155.469 M334.233 154.883 C 334.233 155.366,334.271 155.564,334.318 155.322 C 334.364 155.081,334.364 154.685,334.318 154.443 C 334.271 154.202,334.233 154.399,334.233 154.883 M334.442 166.895 C 334.443 167.754,334.477 168.081,334.518 167.622 C 334.560 167.162,334.559 166.459,334.517 166.059 C 334.475 165.659,334.441 166.035,334.442 166.895 M209.225 167.188 C 209.225 167.563,209.265 167.717,209.314 167.529 C 209.363 167.341,209.363 167.034,209.314 166.846 C 209.265 166.658,209.225 166.812,209.225 167.188 M209.266 178.711 C 209.266 181.880,209.293 183.176,209.326 181.592 C 209.359 180.007,209.359 177.415,209.326 175.830 C 209.293 174.246,209.266 175.542,209.266 178.711 M377.448 369.873 C 377.261 370.627,376.218 372.659,375.718 373.242 C 375.487 373.511,375.425 373.621,375.579 373.486 C 375.733 373.352,376.281 373.242,376.797 373.242 L 377.734 373.242 377.734 371.289 C 377.734 369.261,377.674 368.962,377.448 369.873 M379.102 373.242 L 377.832 373.340 377.777 375.537 L 377.722 377.734 375.511 377.734 L 373.301 377.734 373.265 378.926 C 373.245 379.581,373.211 380.174,373.189 380.244 C 373.166 380.314,373.611 380.803,374.178 381.331 L 375.207 382.291 376.488 382.245 L 377.768 382.198 377.702 384.512 L 377.637 386.825 378.125 386.821 C 378.527 386.817,378.682 386.644,379.004 385.840 C 380.278 382.659,382.803 380.100,385.742 379.011 C 386.649 378.675,386.817 378.537,386.821 378.125 L 386.825 377.637 384.512 377.702 L 382.198 377.768 382.245 376.495 L 382.291 375.223 381.331 374.184 L 380.371 373.145 379.102 373.242 M374.499 374.658 L 373.926 375.293 374.561 374.719 C 375.152 374.185,375.285 374.023,375.134 374.023 C 375.101 374.023,374.815 374.309,374.499 374.658 M372.590 376.119 C 372.070 376.505,371.103 377.023,370.441 377.271 L 369.238 377.722 371.289 377.679 L 373.340 377.637 373.440 376.514 C 373.495 375.896,373.539 375.397,373.537 375.405 C 373.536 375.412,373.110 375.734,372.590 376.119 M382.227 379.336 C 382.227 381.671,381.682 382.227,379.394 382.227 L 377.811 382.227 377.842 380.029 C 377.859 378.821,377.886 377.810,377.901 377.783 C 377.917 377.756,378.896 377.734,380.078 377.734 L 382.227 377.734 382.227 379.336 M376.698 384.666 C 376.877 385.040,377.058 385.312,377.100 385.270 C 377.190 385.180,376.597 383.984,376.463 383.984 C 376.414 383.984,376.520 384.291,376.698 384.666 " stroke="none" fill="#848384" fill-rule="evenodd"></path><path id="path4" d="M209.238 146.875 C 209.238 147.466,209.275 147.708,209.320 147.412 C 209.364 147.117,209.364 146.633,209.320 146.338 C 209.275 146.042,209.238 146.284,209.238 146.875 M209.233 149.805 C 209.233 150.288,209.271 150.486,209.318 150.244 C 209.364 150.002,209.364 149.607,209.318 149.365 C 209.271 149.124,209.233 149.321,209.233 149.805 M89.014 160.099 C 89.255 160.145,89.651 160.145,89.893 160.099 C 90.134 160.052,89.937 160.014,89.453 160.014 C 88.970 160.014,88.772 160.052,89.014 160.099 M92.139 160.099 C 92.380 160.145,92.776 160.145,93.018 160.099 C 93.259 160.052,93.062 160.014,92.578 160.014 C 92.095 160.014,91.897 160.052,92.139 160.099 M209.225 161.523 C 209.225 161.899,209.265 162.053,209.314 161.865 C 209.363 161.677,209.363 161.370,209.314 161.182 C 209.265 160.994,209.225 161.147,209.225 161.523 M209.240 171.191 C 209.241 171.836,209.278 172.076,209.321 171.725 C 209.365 171.374,209.364 170.847,209.319 170.553 C 209.275 170.260,209.239 170.547,209.240 171.191 M377.734 371.084 L 377.734 373.222 376.709 373.294 L 375.684 373.365 376.807 373.401 L 377.930 373.438 377.930 371.191 C 377.930 369.956,377.886 368.945,377.832 368.945 C 377.778 368.945,377.734 369.908,377.734 371.084 M382.256 376.507 L 382.227 377.722 380.029 377.777 C 377.836 377.832,377.832 377.833,377.813 378.320 C 377.797 378.745,377.805 378.752,377.875 378.369 C 377.953 377.947,378.034 377.930,379.993 377.930 L 382.031 377.930 382.059 379.541 C 382.086 381.060,382.097 381.012,382.257 378.711 C 382.351 377.368,382.395 376.050,382.356 375.781 C 382.317 375.513,382.272 375.839,382.256 376.507 M371.094 377.734 L 368.848 377.852 371.033 377.891 C 372.324 377.914,373.269 377.850,373.340 377.734 C 373.406 377.627,373.433 377.557,373.400 377.578 C 373.367 377.599,372.329 377.670,371.094 377.734 M379.688 379.020 C 379.419 379.169,379.287 379.294,379.395 379.297 C 379.502 379.300,379.458 379.396,379.297 379.510 C 379.036 379.694,379.036 379.705,379.297 379.605 C 379.458 379.543,379.738 379.440,379.918 379.375 C 380.099 379.311,380.294 379.135,380.351 378.985 C 380.478 378.655,380.332 378.662,379.688 379.020 M377.737 379.226 C 377.736 379.348,377.946 379.586,378.204 379.755 C 378.638 380.039,378.670 380.037,378.618 379.729 C 378.587 379.545,378.449 379.421,378.312 379.454 C 378.175 379.486,377.991 379.398,377.902 379.258 C 377.800 379.098,377.739 379.086,377.737 379.226 M372.985 379.443 C 372.939 379.524,372.971 379.766,373.058 379.980 C 373.195 380.321,373.216 380.303,373.228 379.834 C 373.242 379.304,373.151 379.157,372.985 379.443 M377.886 380.113 C 378.036 380.262,378.050 380.421,377.928 380.568 C 377.690 380.856,378.309 380.892,378.664 380.612 C 378.857 380.459,378.836 380.361,378.567 380.156 C 378.120 379.817,377.554 379.781,377.886 380.113 M379.048 380.744 C 378.719 380.993,378.721 381.012,379.083 381.106 C 379.367 381.181,379.458 381.112,379.437 380.837 C 379.422 380.635,379.406 380.472,379.402 380.475 C 379.398 380.478,379.239 380.599,379.048 380.744 M377.711 381.793 C 377.647 382.181,377.675 382.364,377.784 382.255 C 377.882 382.157,377.930 381.868,377.890 381.614 C 377.829 381.223,377.801 381.251,377.711 381.793 M378.809 382.031 C 378.739 382.144,378.920 382.225,379.237 382.224 C 379.663 382.221,379.720 382.178,379.492 382.031 C 379.117 381.789,378.958 381.789,378.809 382.031 M375.735 382.365 C 375.978 382.411,376.329 382.410,376.516 382.361 C 376.703 382.312,376.504 382.274,376.074 382.276 C 375.645 382.278,375.492 382.318,375.735 382.365 M377.457 383.593 C 377.466 384.130,377.532 384.628,377.604 384.700 C 377.676 384.772,377.734 384.333,377.734 383.724 C 377.734 383.115,377.668 382.617,377.588 382.617 C 377.507 382.617,377.449 383.056,377.457 383.593 " stroke="none" fill="#8b8c86" fill-rule="evenodd"></path></g></svg>